<?xml version="1.0" encoding="UTF-8" standalone="no"?>
<svg
   height="100px"
   width="100px"
   fill="#000000"
   version="1.1"
   x="0px"
   y="0px"
   viewBox="0 0 95 95"
   enable-background="new 0 0 95 95"
   xml:space="preserve"
   id="svg4"
   sodipodi:docname="soapbox.svg"
   inkscape:version="1.2.2 (b0a8486541, 2022-12-01)"
   xmlns:inkscape="http://www.inkscape.org/namespaces/inkscape"
   xmlns:sodipodi="http://sodipodi.sourceforge.net/DTD/sodipodi-0.dtd"
   xmlns="http://www.w3.org/2000/svg"
   xmlns:svg="http://www.w3.org/2000/svg"
   xmlns:rdf="http://www.w3.org/1999/02/22-rdf-syntax-ns#"
   xmlns:cc="http://creativecommons.org/ns#"
   xmlns:dc="http://purl.org/dc/elements/1.1/"><sodipodi:namedview
     id="namedview6"
     pagecolor="#ffffff"
     bordercolor="#666666"
     borderopacity="1.0"
     inkscape:showpageshadow="2"
     inkscape:pageopacity="0.0"
     inkscape:pagecheckerboard="0"
     inkscape:deskcolor="#d1d1d1"
     showgrid="false"
     inkscape:zoom="3.89"
     inkscape:cx="2.0565553"
     inkscape:cy="84.832905"
     inkscape:window-width="1888"
     inkscape:window-height="1060"
     inkscape:window-x="32"
     inkscape:window-y="0"
     inkscape:window-maximized="1"
     inkscape:current-layer="svg4" /><metadata
     id="metadata10"><rdf:RDF><cc:Work
         rdf:about=""><dc:format>image/svg+xml</dc:format><dc:type
           rdf:resource="http://purl.org/dc/dcmitype/StillImage" /></cc:Work></rdf:RDF></metadata><defs
     id="defs8" /><path
     d="m 88.181164,23.36522 c 0,-9.181745 -7.443114,-16.6248623 -16.624858,-16.6248623 -9.135969,0 -16.544521,7.3721153 -16.617391,16.4903323 l -13.412933,1.793747 c -1.682572,-5.154221 -6.520086,-8.88092 -12.234854,-8.88092 -7.108659,0 -12.872942,5.763348 -12.872942,12.872943 0,5.69982 3.708014,10.52612 8.840747,12.21897 L 23.36709,55.01272 c -9.147177,0.04204 -16.5482541,7.465541 -16.5482541,16.621127 0,9.181742 7.4431161,16.625795 16.6248611,16.625795 9.162126,0 16.588429,-7.412287 16.621126,-16.565071 l 15.52526,-2.145957 c 1.698455,5.124327 6.520085,8.825798 12.214302,8.825798 7.108656,0 12.872937,-5.763348 12.872937,-12.872941 0,-5.912827 -3.992025,-10.882069 -9.424648,-12.391806 L 72.424217,39.947109 C 81.201431,39.492132 88.181164,32.253611 88.181164,23.36522 Z M 54.960404,64.919438 39.415525,67.069131 C 37.842259,61.55803 33.505501,57.225006 27.99253,55.656413 l 1.891843,-13.795975 c 6.618183,-0.303627 11.920946,-5.591446 12.24513,-12.204024 L 55.56299,27.859865 c 1.625584,5.797915 6.308011,10.304708 12.206826,11.680846 L 66.598273,52.68832 c -6.350052,0.590443 -11.347322,5.795114 -11.637869,12.231118 z"
     id="path2"
     style="fill:#0482d8;fill-opacity:1;stroke-width:1.08874" /></svg>
